<mxfile host="app.diagrams.net" modified="2021-01-28T19:46:37.548Z" agent="5.0 (Windows NT 10.0; Win64; x64) AppleWebKit/537.36 (KHTML, like Gecko) Chrome/86.0.4240.75 Safari/537.36" etag="uRDhXDgkLXGccoqynLN5" version="13.7.6" type="github">
  <diagram id="g7usEjnd5ee0Ly5ZbJtn" name="Page-1">
    <mxGraphModel dx="620" dy="312" grid="1" gridSize="10" guides="1" tooltips="1" connect="1" arrows="1" fold="1" page="1" pageScale="1" pageWidth="850" pageHeight="1100" math="0" shadow="0">
      <root>
        <mxCell id="0" />
        <mxCell id="1" parent="0" />
        <mxCell id="kuxUDI9ris-chH6kOZA5-78" value="" style="edgeStyle=orthogonalEdgeStyle;rounded=0;orthogonalLoop=1;jettySize=auto;startArrow=none;startFill=0;endArrow=classicThin;endFill=1;fontSize=7;dashed=1;" edge="1" parent="1" source="kuxUDI9ris-chH6kOZA5-68" target="kuxUDI9ris-chH6kOZA5-31">
          <mxGeometry relative="1" as="geometry" />
        </mxCell>
        <mxCell id="kuxUDI9ris-chH6kOZA5-79" value="estimation\&#xa;preview" style="edgeLabel;align=center;verticalAlign=middle;resizable=0;points=[];fontSize=7;" vertex="1" connectable="0" parent="kuxUDI9ris-chH6kOZA5-78">
          <mxGeometry x="-0.2544" relative="1" as="geometry">
            <mxPoint x="-22" y="-6.04" as="offset" />
          </mxGeometry>
        </mxCell>
        <mxCell id="kuxUDI9ris-chH6kOZA5-128" style="edgeStyle=orthogonalEdgeStyle;rounded=0;orthogonalLoop=1;jettySize=auto;html=0;entryX=0;entryY=0.25;entryDx=0;entryDy=0;startArrow=none;startFill=0;endArrow=classicThin;endFill=1;fontSize=7;exitX=1;exitY=0.5;exitDx=0;exitDy=0;" edge="1" parent="1" source="kuxUDI9ris-chH6kOZA5-68" target="kuxUDI9ris-chH6kOZA5-61">
          <mxGeometry relative="1" as="geometry">
            <Array as="points">
              <mxPoint x="420" y="246" />
              <mxPoint x="420" y="278" />
            </Array>
          </mxGeometry>
        </mxCell>
        <mxCell id="kuxUDI9ris-chH6kOZA5-133" value="bank, &lt;br&gt;grade" style="edgeLabel;html=1;align=center;verticalAlign=middle;resizable=0;points=[];fontSize=7;" vertex="1" connectable="0" parent="kuxUDI9ris-chH6kOZA5-128">
          <mxGeometry x="0.5882" y="-1" relative="1" as="geometry">
            <mxPoint x="23" y="-2.0999999999999996" as="offset" />
          </mxGeometry>
        </mxCell>
        <mxCell id="kuxUDI9ris-chH6kOZA5-68" value="road friction,&#xa;road geometry" style="rounded=1;labelBackgroundColor=none;arcSize=16;verticalAlign=middle;fontSize=10;align=center;fillColor=#f5f5f5;strokeColor=#666666;fontColor=#333333;" vertex="1" parent="1">
          <mxGeometry x="175" y="230" width="66" height="31.42" as="geometry" />
        </mxCell>
        <mxCell id="kuxUDI9ris-chH6kOZA5-50" value="Vehicle Kinematics" style="rounded=1;align=center;verticalAlign=top;fontSize=10;fontStyle=0;strokeColor=#666666;fillColor=#f5f5f5;fontColor=#333333;glass=0;" vertex="1" parent="1">
          <mxGeometry x="461.65" y="320" width="98.35" height="126" as="geometry" />
        </mxCell>
        <mxCell id="kuxUDI9ris-chH6kOZA5-32" value="Vehicle Dynamics" style="rounded=1;align=center;verticalAlign=top;fontSize=10;fontStyle=0;strokeColor=#666666;fillColor=#f5f5f5;fontColor=#333333;glass=0;" vertex="1" parent="1">
          <mxGeometry x="290.32" y="270" width="108.35" height="176" as="geometry" />
        </mxCell>
        <mxCell id="kuxUDI9ris-chH6kOZA5-37" value="" style="edgeStyle=orthogonalEdgeStyle;rounded=0;orthogonalLoop=1;jettySize=auto;entryX=0;entryY=0.5;entryDx=0;entryDy=0;exitX=1;exitY=0.25;exitDx=0;exitDy=0;endArrow=classicThin;endFill=1;" edge="1" parent="1" source="kuxUDI9ris-chH6kOZA5-31" target="kuxUDI9ris-chH6kOZA5-33">
          <mxGeometry relative="1" as="geometry">
            <mxPoint x="230" y="369" as="sourcePoint" />
          </mxGeometry>
        </mxCell>
        <mxCell id="kuxUDI9ris-chH6kOZA5-38" value="driving/brake &#xa;torque T" style="edgeLabel;align=center;verticalAlign=middle;resizable=0;points=[];fontSize=7;" vertex="1" connectable="0" parent="kuxUDI9ris-chH6kOZA5-37">
          <mxGeometry x="-0.2581" y="-1" relative="1" as="geometry">
            <mxPoint x="1.240000000000002" y="-11.41" as="offset" />
          </mxGeometry>
        </mxCell>
        <mxCell id="kuxUDI9ris-chH6kOZA5-41" value="" style="edgeStyle=orthogonalEdgeStyle;rounded=0;orthogonalLoop=1;jettySize=auto;exitX=1;exitY=0.75;exitDx=0;exitDy=0;fontSize=7;endArrow=classicThin;endFill=1;fillColor=#d5e8d4;strokeColor=#82b366;entryX=0;entryY=0.25;entryDx=0;entryDy=0;" edge="1" parent="1" source="kuxUDI9ris-chH6kOZA5-31" target="kuxUDI9ris-chH6kOZA5-39">
          <mxGeometry relative="1" as="geometry" />
        </mxCell>
        <mxCell id="kuxUDI9ris-chH6kOZA5-42" value="steering δ" style="edgeLabel;align=center;verticalAlign=middle;resizable=0;points=[];fontSize=7;" vertex="1" connectable="0" parent="kuxUDI9ris-chH6kOZA5-41">
          <mxGeometry x="-0.1988" y="1" relative="1" as="geometry">
            <mxPoint x="-10.86" y="-25.509999999999998" as="offset" />
          </mxGeometry>
        </mxCell>
        <mxCell id="kuxUDI9ris-chH6kOZA5-56" value="" style="edgeStyle=orthogonalEdgeStyle;rounded=0;orthogonalLoop=1;jettySize=auto;exitX=1;exitY=0.75;exitDx=0;exitDy=0;entryX=0;entryY=0.25;entryDx=0;entryDy=0;fontSize=7;endArrow=classicThin;endFill=1;fillColor=#d5e8d4;strokeColor=#82b366;" edge="1" parent="1" source="kuxUDI9ris-chH6kOZA5-31" target="kuxUDI9ris-chH6kOZA5-48">
          <mxGeometry relative="1" as="geometry">
            <Array as="points">
              <mxPoint x="420" y="356" />
              <mxPoint x="420" y="401" />
            </Array>
          </mxGeometry>
        </mxCell>
        <mxCell id="kuxUDI9ris-chH6kOZA5-31" value="Driver &#xa;Model and &#xa;Controller" style="rounded=1;align=center;verticalAlign=middle;fontSize=10;fontStyle=0;fillColor=#F8CBAD;strokeColor=#578EC0;arcSize=10;" vertex="1" parent="1">
          <mxGeometry x="175" y="284.68" width="66" height="95.03" as="geometry" />
        </mxCell>
        <mxCell id="kuxUDI9ris-chH6kOZA5-44" value="" style="edgeStyle=orthogonalEdgeStyle;rounded=0;orthogonalLoop=1;jettySize=auto;fontSize=7;entryX=0;entryY=0.25;entryDx=0;entryDy=0;endArrow=classicThin;endFill=1;fillColor=#dae8fc;strokeColor=#6c8ebf;" edge="1" parent="1" source="kuxUDI9ris-chH6kOZA5-33" target="kuxUDI9ris-chH6kOZA5-51">
          <mxGeometry relative="1" as="geometry">
            <mxPoint x="460" y="300" as="targetPoint" />
            <Array as="points">
              <mxPoint x="420" y="308" />
              <mxPoint x="420" y="348" />
            </Array>
          </mxGeometry>
        </mxCell>
        <mxCell id="kuxUDI9ris-chH6kOZA5-45" value="rotational &#xa;velocity ω" style="edgeLabel;align=center;verticalAlign=middle;resizable=0;points=[];fontSize=7;" vertex="1" connectable="0" parent="kuxUDI9ris-chH6kOZA5-44">
          <mxGeometry x="0.169" relative="1" as="geometry">
            <mxPoint x="18.639999999999997" y="-10.919999999999998" as="offset" />
          </mxGeometry>
        </mxCell>
        <mxCell id="kuxUDI9ris-chH6kOZA5-33" value="4 Wheels" style="rounded=1;align=center;verticalAlign=middle;fontSize=10;fontStyle=0;fillColor=#fff2cc;strokeColor=#d6b656;gradientColor=#ffd966;" vertex="1" parent="1">
          <mxGeometry x="303" y="298.4246" width="83" height="20" as="geometry" />
        </mxCell>
        <mxCell id="kuxUDI9ris-chH6kOZA5-34" value="" style="edgeStyle=orthogonalEdgeStyle;rounded=0;orthogonalLoop=1;jettySize=auto;exitX=0.5;exitY=1;exitDx=0;exitDy=0;" edge="1" parent="1" source="kuxUDI9ris-chH6kOZA5-33" target="kuxUDI9ris-chH6kOZA5-33">
          <mxGeometry relative="1" as="geometry" />
        </mxCell>
        <mxCell id="kuxUDI9ris-chH6kOZA5-46" value="" style="edgeStyle=orthogonalEdgeStyle;rounded=0;orthogonalLoop=1;jettySize=auto;exitX=1;exitY=0.5;exitDx=0;exitDy=0;fontSize=7;endArrow=classicThin;endFill=1;entryX=0.5;entryY=1;entryDx=0;entryDy=0;" edge="1" parent="1" source="kuxUDI9ris-chH6kOZA5-35" target="kuxUDI9ris-chH6kOZA5-39">
          <mxGeometry relative="1" as="geometry">
            <mxPoint x="345" y="430" as="targetPoint" />
            <Array as="points">
              <mxPoint x="704" y="332" />
              <mxPoint x="704" y="470" />
              <mxPoint x="345" y="470" />
            </Array>
          </mxGeometry>
        </mxCell>
        <mxCell id="kuxUDI9ris-chH6kOZA5-47" value="Ftx,Fty" style="edgeLabel;align=center;verticalAlign=middle;resizable=0;points=[];fontSize=7;" vertex="1" connectable="0" parent="kuxUDI9ris-chH6kOZA5-46">
          <mxGeometry x="0.217" relative="1" as="geometry">
            <mxPoint x="2.99" y="-6" as="offset" />
          </mxGeometry>
        </mxCell>
        <mxCell id="kuxUDI9ris-chH6kOZA5-35" value="Tires" style="rounded=1;align=center;verticalAlign=middle;fillColor=#d0cee2;strokeColor=#56517e;fontSize=9;fontStyle=0;" vertex="1" parent="1">
          <mxGeometry x="620" y="305.32" width="64" height="53.76" as="geometry" />
        </mxCell>
        <mxCell id="kuxUDI9ris-chH6kOZA5-53" value="" style="edgeStyle=orthogonalEdgeStyle;rounded=0;orthogonalLoop=1;jettySize=auto;fontSize=7;entryX=-0.003;entryY=0.685;entryDx=0;entryDy=0;entryPerimeter=0;endArrow=classicThin;endFill=1;exitX=1;exitY=0.75;exitDx=0;exitDy=0;fillColor=#fff2cc;strokeColor=#d6b656;" edge="1" parent="1" source="kuxUDI9ris-chH6kOZA5-39" target="kuxUDI9ris-chH6kOZA5-48">
          <mxGeometry relative="1" as="geometry" />
        </mxCell>
        <mxCell id="kuxUDI9ris-chH6kOZA5-54" value="Vx,Vy,r" style="edgeLabel;align=center;verticalAlign=middle;resizable=0;points=[];fontSize=7;" vertex="1" connectable="0" parent="kuxUDI9ris-chH6kOZA5-53">
          <mxGeometry x="-0.6241" relative="1" as="geometry">
            <mxPoint x="9.99" y="-5.700000000000001" as="offset" />
          </mxGeometry>
        </mxCell>
        <mxCell id="kuxUDI9ris-chH6kOZA5-58" value="" style="edgeStyle=orthogonalEdgeStyle;rounded=0;orthogonalLoop=1;jettySize=auto;startArrow=none;startFill=0;endArrow=classicThin;endFill=1;fontSize=7;entryX=0;entryY=0.75;entryDx=0;entryDy=0;exitX=1;exitY=0.75;exitDx=0;exitDy=0;fillColor=#fff2cc;strokeColor=#d6b656;" edge="1" parent="1" source="kuxUDI9ris-chH6kOZA5-39" target="kuxUDI9ris-chH6kOZA5-51">
          <mxGeometry relative="1" as="geometry">
            <mxPoint x="450" y="410" as="targetPoint" />
            <Array as="points">
              <mxPoint x="440" y="416" />
              <mxPoint x="440" y="364" />
            </Array>
          </mxGeometry>
        </mxCell>
        <mxCell id="kuxUDI9ris-chH6kOZA5-39" value="Vehicle Body:&#xa;Longitudinal,&#xa;Lateral,Yaw" style="rounded=1;align=center;verticalAlign=middle;fontSize=10;fontStyle=0;fillColor=#fff2cc;strokeColor=#d6b656;gradientColor=#ffd966;" vertex="1" parent="1">
          <mxGeometry x="303.68" y="363" width="83" height="70" as="geometry" />
        </mxCell>
        <mxCell id="kuxUDI9ris-chH6kOZA5-64" value="" style="edgeStyle=orthogonalEdgeStyle;rounded=0;orthogonalLoop=1;jettySize=auto;startArrow=none;startFill=0;endArrow=classicThin;endFill=1;fontSize=7;entryX=-0.01;entryY=0.795;entryDx=0;entryDy=0;entryPerimeter=0;" edge="1" parent="1" source="kuxUDI9ris-chH6kOZA5-48" target="kuxUDI9ris-chH6kOZA5-35">
          <mxGeometry relative="1" as="geometry">
            <mxPoint x="610" y="370" as="targetPoint" />
            <Array as="points">
              <mxPoint x="600" y="410" />
              <mxPoint x="600" y="348" />
            </Array>
          </mxGeometry>
        </mxCell>
        <mxCell id="kuxUDI9ris-chH6kOZA5-75" value="α" style="edgeLabel;align=center;verticalAlign=middle;resizable=0;points=[];fontSize=7;" vertex="1" connectable="0" parent="kuxUDI9ris-chH6kOZA5-64">
          <mxGeometry x="-0.6424" y="-1" relative="1" as="geometry">
            <mxPoint x="5.879999999999999" y="-9.8" as="offset" />
          </mxGeometry>
        </mxCell>
        <mxCell id="kuxUDI9ris-chH6kOZA5-48" value="Slip Angle" style="rounded=1;align=center;verticalAlign=middle;fillColor=#b1ddf0;strokeColor=#10739e;fontSize=9;fontStyle=0;" vertex="1" parent="1">
          <mxGeometry x="478.72" y="394.09369999999996" width="64.21" height="31.42" as="geometry" />
        </mxCell>
        <mxCell id="kuxUDI9ris-chH6kOZA5-63" value="" style="edgeStyle=orthogonalEdgeStyle;rounded=0;orthogonalLoop=1;jettySize=auto;startArrow=none;startFill=0;endArrow=classicThin;endFill=1;fontSize=7;entryX=0;entryY=0.599;entryDx=0;entryDy=0;entryPerimeter=0;" edge="1" parent="1" source="kuxUDI9ris-chH6kOZA5-51" target="kuxUDI9ris-chH6kOZA5-35">
          <mxGeometry relative="1" as="geometry">
            <mxPoint x="600" y="342" as="targetPoint" />
            <Array as="points">
              <mxPoint x="590" y="356" />
              <mxPoint x="590" y="338" />
            </Array>
          </mxGeometry>
        </mxCell>
        <mxCell id="kuxUDI9ris-chH6kOZA5-74" value="κ" style="edgeLabel;align=center;verticalAlign=middle;resizable=0;points=[];fontSize=7;" vertex="1" connectable="0" parent="kuxUDI9ris-chH6kOZA5-63">
          <mxGeometry x="0.016" y="6" relative="1" as="geometry">
            <mxPoint x="-12.879999999999999" y="-6.31" as="offset" />
          </mxGeometry>
        </mxCell>
        <mxCell id="kuxUDI9ris-chH6kOZA5-51" value="Slip Ratio" style="rounded=1;align=center;verticalAlign=middle;fillColor=#b1ddf0;strokeColor=#10739e;fontSize=9;fontStyle=0;" vertex="1" parent="1">
          <mxGeometry x="478.72" y="340.28995" width="64.21" height="31.42" as="geometry" />
        </mxCell>
        <mxCell id="kuxUDI9ris-chH6kOZA5-59" value="" style="edgeStyle=orthogonalEdgeStyle;rounded=0;orthogonalLoop=1;jettySize=auto;exitX=1;exitY=0.75;exitDx=0;exitDy=0;fontSize=7;endArrow=classicThin;endFill=1;fillColor=#d5e8d4;strokeColor=#82b366;entryX=0;entryY=0.5;entryDx=0;entryDy=0;" edge="1" parent="1" source="kuxUDI9ris-chH6kOZA5-31" target="kuxUDI9ris-chH6kOZA5-51">
          <mxGeometry relative="1" as="geometry">
            <mxPoint x="230" y="365.9525000000001" as="sourcePoint" />
            <mxPoint x="337.67999999999995" y="410" as="targetPoint" />
          </mxGeometry>
        </mxCell>
        <mxCell id="kuxUDI9ris-chH6kOZA5-62" value="" style="edgeStyle=orthogonalEdgeStyle;rounded=0;orthogonalLoop=1;jettySize=auto;startArrow=none;startFill=0;endArrow=classicThin;endFill=1;fontSize=7;entryX=-0.012;entryY=0.402;entryDx=0;entryDy=0;entryPerimeter=0;" edge="1" parent="1" source="kuxUDI9ris-chH6kOZA5-61" target="kuxUDI9ris-chH6kOZA5-35">
          <mxGeometry relative="1" as="geometry">
            <mxPoint x="600" y="329" as="targetPoint" />
            <Array as="points">
              <mxPoint x="590" y="286" />
              <mxPoint x="590" y="327" />
            </Array>
          </mxGeometry>
        </mxCell>
        <mxCell id="kuxUDI9ris-chH6kOZA5-76" value="Fz" style="edgeLabel;align=center;verticalAlign=middle;resizable=0;points=[];fontSize=7;" vertex="1" connectable="0" parent="kuxUDI9ris-chH6kOZA5-62">
          <mxGeometry x="-0.736" y="1" relative="1" as="geometry">
            <mxPoint x="-1.2400000000000002" y="-6" as="offset" />
          </mxGeometry>
        </mxCell>
        <mxCell id="kuxUDI9ris-chH6kOZA5-61" value="Normal Force" style="rounded=1;align=center;verticalAlign=middle;fontSize=9;fontStyle=0;fillColor=#f5f5f5;strokeColor=#666666;fontColor=#333333;" vertex="1" parent="1">
          <mxGeometry x="461.65" y="270" width="98.35" height="31.42" as="geometry" />
        </mxCell>
        <mxCell id="kuxUDI9ris-chH6kOZA5-81" value="" style="edgeStyle=orthogonalEdgeStyle;rounded=0;orthogonalLoop=1;jettySize=auto;entryX=0;entryY=0.75;entryDx=0;entryDy=0;startArrow=none;startFill=0;endArrow=classicThin;endFill=1;fontSize=10;fillColor=#d0cee2;strokeColor=#56517e;" edge="1" parent="1" source="kuxUDI9ris-chH6kOZA5-87" target="kuxUDI9ris-chH6kOZA5-118">
          <mxGeometry relative="1" as="geometry">
            <Array as="points">
              <mxPoint x="420" y="791" />
              <mxPoint x="420" y="772" />
            </Array>
          </mxGeometry>
        </mxCell>
        <mxCell id="kuxUDI9ris-chH6kOZA5-82" value="road geometry" style="edgeLabel;align=center;verticalAlign=middle;resizable=0;points=[];fontSize=7;" vertex="1" connectable="0" parent="kuxUDI9ris-chH6kOZA5-81">
          <mxGeometry x="0.2775" y="1" relative="1" as="geometry">
            <mxPoint x="36.620000000000005" y="-25.42" as="offset" />
          </mxGeometry>
        </mxCell>
        <mxCell id="kuxUDI9ris-chH6kOZA5-83" value="" style="edgeStyle=orthogonalEdgeStyle;rounded=0;orthogonalLoop=1;jettySize=auto;entryX=0;entryY=0.75;entryDx=0;entryDy=0;startArrow=none;startFill=0;endArrow=classicThin;endFill=1;fontSize=7;fillColor=#d0cee2;strokeColor=#56517e;" edge="1" parent="1" source="kuxUDI9ris-chH6kOZA5-87" target="kuxUDI9ris-chH6kOZA5-102">
          <mxGeometry relative="1" as="geometry">
            <Array as="points">
              <mxPoint x="208" y="590" />
              <mxPoint x="590" y="590" />
              <mxPoint x="590" y="676" />
              <mxPoint x="620" y="676" />
            </Array>
          </mxGeometry>
        </mxCell>
        <mxCell id="kuxUDI9ris-chH6kOZA5-84" value="μ" style="edgeLabel;align=center;verticalAlign=middle;resizable=0;points=[];fontSize=7;" vertex="1" connectable="0" parent="kuxUDI9ris-chH6kOZA5-83">
          <mxGeometry x="0.3804" y="-1" relative="1" as="geometry">
            <mxPoint x="-22" y="-8" as="offset" />
          </mxGeometry>
        </mxCell>
        <mxCell id="kuxUDI9ris-chH6kOZA5-85" value="" style="edgeStyle=orthogonalEdgeStyle;rounded=0;orthogonalLoop=1;jettySize=auto;startArrow=none;startFill=0;endArrow=classicThin;endFill=1;fontSize=7;dashed=1;" edge="1" parent="1" source="kuxUDI9ris-chH6kOZA5-87" target="kuxUDI9ris-chH6kOZA5-95">
          <mxGeometry relative="1" as="geometry" />
        </mxCell>
        <mxCell id="kuxUDI9ris-chH6kOZA5-86" value="estimation\&#xa;preview" style="edgeLabel;align=center;verticalAlign=middle;resizable=0;points=[];fontSize=7;" vertex="1" connectable="0" parent="kuxUDI9ris-chH6kOZA5-85">
          <mxGeometry x="-0.2544" relative="1" as="geometry">
            <mxPoint x="-22" y="-4.04" as="offset" />
          </mxGeometry>
        </mxCell>
        <mxCell id="kuxUDI9ris-chH6kOZA5-87" value="road friction,&#xa;road geometry" style="rounded=1;labelBackgroundColor=none;arcSize=16;verticalAlign=middle;fontSize=10;align=center;fillColor=#f5f5f5;strokeColor=#666666;fontColor=#333333;" vertex="1" parent="1">
          <mxGeometry x="175" y="576.87" width="66" height="41.42" as="geometry" />
        </mxCell>
        <mxCell id="kuxUDI9ris-chH6kOZA5-88" value="Vehicle Kinematics" style="rounded=1;align=center;verticalAlign=top;fontSize=10;fontStyle=0;strokeColor=#666666;fillColor=#f5f5f5;fontColor=#333333;glass=0;" vertex="1" parent="1">
          <mxGeometry x="451.65" y="646" width="98.35" height="124" as="geometry" />
        </mxCell>
        <mxCell id="kuxUDI9ris-chH6kOZA5-89" value="Vehicle Dynamics" style="rounded=1;align=center;verticalAlign=top;fontSize=10;fontStyle=0;strokeColor=#666666;fillColor=#f5f5f5;fontColor=#333333;glass=0;" vertex="1" parent="1">
          <mxGeometry x="290.32" y="600" width="108.35" height="176" as="geometry" />
        </mxCell>
        <mxCell id="kuxUDI9ris-chH6kOZA5-90" value="" style="edgeStyle=orthogonalEdgeStyle;rounded=0;orthogonalLoop=1;jettySize=auto;entryX=0;entryY=0.5;entryDx=0;entryDy=0;endArrow=classicThin;endFill=1;exitX=1;exitY=0.75;exitDx=0;exitDy=0;" edge="1" parent="1" source="kuxUDI9ris-chH6kOZA5-95" target="kuxUDI9ris-chH6kOZA5-98">
          <mxGeometry relative="1" as="geometry">
            <mxPoint x="250" y="740" as="sourcePoint" />
          </mxGeometry>
        </mxCell>
        <mxCell id="kuxUDI9ris-chH6kOZA5-91" value="driving/brake &#xa;torque T" style="edgeLabel;align=center;verticalAlign=middle;resizable=0;points=[];fontSize=7;" vertex="1" connectable="0" parent="kuxUDI9ris-chH6kOZA5-90">
          <mxGeometry x="-0.2581" y="-1" relative="1" as="geometry">
            <mxPoint x="1.240000000000002" y="-11.41" as="offset" />
          </mxGeometry>
        </mxCell>
        <mxCell id="kuxUDI9ris-chH6kOZA5-92" value="" style="edgeStyle=orthogonalEdgeStyle;rounded=0;orthogonalLoop=1;jettySize=auto;exitX=1;exitY=0.75;exitDx=0;exitDy=0;fontSize=7;endArrow=classicThin;endFill=1;fillColor=#d5e8d4;strokeColor=#82b366;entryX=0;entryY=0.75;entryDx=0;entryDy=0;" edge="1" parent="1" source="kuxUDI9ris-chH6kOZA5-95" target="kuxUDI9ris-chH6kOZA5-108">
          <mxGeometry relative="1" as="geometry">
            <Array as="points">
              <mxPoint x="241" y="686" />
              <mxPoint x="304" y="686" />
            </Array>
          </mxGeometry>
        </mxCell>
        <mxCell id="kuxUDI9ris-chH6kOZA5-93" value="steering δ" style="edgeLabel;align=center;verticalAlign=middle;resizable=0;points=[];fontSize=7;" vertex="1" connectable="0" parent="kuxUDI9ris-chH6kOZA5-92">
          <mxGeometry x="-0.1988" y="1" relative="1" as="geometry">
            <mxPoint x="-10.86" y="-25.509999999999998" as="offset" />
          </mxGeometry>
        </mxCell>
        <mxCell id="kuxUDI9ris-chH6kOZA5-94" value="" style="edgeStyle=orthogonalEdgeStyle;rounded=0;orthogonalLoop=1;jettySize=auto;entryX=0;entryY=0.25;entryDx=0;entryDy=0;fontSize=7;endArrow=classicThin;endFill=1;fillColor=#d5e8d4;strokeColor=#82b366;" edge="1" parent="1" target="kuxUDI9ris-chH6kOZA5-111">
          <mxGeometry relative="1" as="geometry">
            <mxPoint x="250" y="690" as="sourcePoint" />
          </mxGeometry>
        </mxCell>
        <mxCell id="kuxUDI9ris-chH6kOZA5-95" value="Driver &#xa;Model and &#xa;Controller" style="rounded=1;align=center;verticalAlign=middle;fontSize=10;fontStyle=0;fillColor=#F8CBAD;strokeColor=#578EC0;arcSize=10;" vertex="1" parent="1">
          <mxGeometry x="175" y="674.97" width="66" height="95.03" as="geometry" />
        </mxCell>
        <mxCell id="kuxUDI9ris-chH6kOZA5-96" value="" style="edgeStyle=orthogonalEdgeStyle;rounded=0;orthogonalLoop=1;jettySize=auto;fontSize=7;entryX=0;entryY=0.25;entryDx=0;entryDy=0;endArrow=classicThin;endFill=1;" edge="1" parent="1" source="kuxUDI9ris-chH6kOZA5-98" target="kuxUDI9ris-chH6kOZA5-114">
          <mxGeometry relative="1" as="geometry">
            <mxPoint x="460" y="630" as="targetPoint" />
          </mxGeometry>
        </mxCell>
        <mxCell id="kuxUDI9ris-chH6kOZA5-97" value="rotational &#xa;velocity ω" style="edgeLabel;align=center;verticalAlign=middle;resizable=0;points=[];fontSize=7;" vertex="1" connectable="0" parent="kuxUDI9ris-chH6kOZA5-96">
          <mxGeometry x="0.169" relative="1" as="geometry">
            <mxPoint x="-11.21" y="-10.4" as="offset" />
          </mxGeometry>
        </mxCell>
        <mxCell id="kuxUDI9ris-chH6kOZA5-98" value="4 Wheels" style="rounded=1;align=center;verticalAlign=middle;fontSize=10;fontStyle=0;fillColor=#fff2cc;strokeColor=#d6b656;gradientColor=#ffd966;" vertex="1" parent="1">
          <mxGeometry x="303.68" y="740.0046000000001" width="83" height="20" as="geometry" />
        </mxCell>
        <mxCell id="kuxUDI9ris-chH6kOZA5-99" value="" style="edgeStyle=orthogonalEdgeStyle;rounded=0;orthogonalLoop=1;jettySize=auto;exitX=0.5;exitY=1;exitDx=0;exitDy=0;" edge="1" parent="1" source="kuxUDI9ris-chH6kOZA5-98" target="kuxUDI9ris-chH6kOZA5-98">
          <mxGeometry relative="1" as="geometry" />
        </mxCell>
        <mxCell id="kuxUDI9ris-chH6kOZA5-100" value="" style="edgeStyle=orthogonalEdgeStyle;rounded=0;orthogonalLoop=1;jettySize=auto;exitX=1;exitY=0.5;exitDx=0;exitDy=0;fontSize=7;endArrow=classicThin;endFill=1;" edge="1" parent="1" source="kuxUDI9ris-chH6kOZA5-102">
          <mxGeometry relative="1" as="geometry">
            <mxPoint x="345" y="760" as="targetPoint" />
            <Array as="points">
              <mxPoint x="710" y="662" />
              <mxPoint x="710" y="820" />
              <mxPoint x="345" y="820" />
            </Array>
          </mxGeometry>
        </mxCell>
        <mxCell id="kuxUDI9ris-chH6kOZA5-101" value="Ftx,Fty" style="edgeLabel;align=center;verticalAlign=middle;resizable=0;points=[];fontSize=7;" vertex="1" connectable="0" parent="kuxUDI9ris-chH6kOZA5-100">
          <mxGeometry x="0.217" relative="1" as="geometry">
            <mxPoint x="2.99" y="-6" as="offset" />
          </mxGeometry>
        </mxCell>
        <mxCell id="kuxUDI9ris-chH6kOZA5-102" value="Tires" style="rounded=1;align=center;verticalAlign=middle;fillColor=#d0cee2;strokeColor=#56517e;fontSize=9;fontStyle=0;" vertex="1" parent="1">
          <mxGeometry x="620" y="709.51" width="64" height="53.76" as="geometry" />
        </mxCell>
        <mxCell id="kuxUDI9ris-chH6kOZA5-103" value="" style="edgeStyle=orthogonalEdgeStyle;rounded=0;orthogonalLoop=1;jettySize=auto;fontSize=7;entryX=-0.003;entryY=0.685;entryDx=0;entryDy=0;entryPerimeter=0;endArrow=classicThin;endFill=1;exitX=1;exitY=0.25;exitDx=0;exitDy=0;" edge="1" parent="1" source="kuxUDI9ris-chH6kOZA5-108" target="kuxUDI9ris-chH6kOZA5-111">
          <mxGeometry relative="1" as="geometry">
            <Array as="points">
              <mxPoint x="430" y="715" />
              <mxPoint x="430" y="700" />
            </Array>
          </mxGeometry>
        </mxCell>
        <mxCell id="kuxUDI9ris-chH6kOZA5-104" value="Vx,Vy,r" style="edgeLabel;align=center;verticalAlign=middle;resizable=0;points=[];fontSize=7;" vertex="1" connectable="0" parent="kuxUDI9ris-chH6kOZA5-103">
          <mxGeometry x="-0.6241" relative="1" as="geometry">
            <mxPoint x="-2.9299999999999997" y="-6.300000000000001" as="offset" />
          </mxGeometry>
        </mxCell>
        <mxCell id="kuxUDI9ris-chH6kOZA5-105" value="" style="edgeStyle=orthogonalEdgeStyle;rounded=0;orthogonalLoop=1;jettySize=auto;startArrow=none;startFill=0;endArrow=classicThin;endFill=1;fontSize=7;entryX=0;entryY=0.75;entryDx=0;entryDy=0;exitX=1;exitY=0.25;exitDx=0;exitDy=0;" edge="1" parent="1" source="kuxUDI9ris-chH6kOZA5-108" target="kuxUDI9ris-chH6kOZA5-114">
          <mxGeometry relative="1" as="geometry">
            <mxPoint x="450" y="740" as="targetPoint" />
            <Array as="points">
              <mxPoint x="430" y="715" />
              <mxPoint x="430" y="654" />
            </Array>
          </mxGeometry>
        </mxCell>
        <mxCell id="kuxUDI9ris-chH6kOZA5-106" value="" style="edgeStyle=orthogonalEdgeStyle;rounded=0;orthogonalLoop=1;jettySize=auto;startArrow=none;startFill=0;endArrow=classicThin;endFill=1;fontSize=7;entryX=0;entryY=0.25;entryDx=0;entryDy=0;exitX=1;exitY=0.75;exitDx=0;exitDy=0;" edge="1" parent="1" source="kuxUDI9ris-chH6kOZA5-108" target="kuxUDI9ris-chH6kOZA5-118">
          <mxGeometry relative="1" as="geometry">
            <Array as="points">
              <mxPoint x="420" y="745" />
              <mxPoint x="420" y="756" />
            </Array>
          </mxGeometry>
        </mxCell>
        <mxCell id="kuxUDI9ris-chH6kOZA5-107" value="ax,ay" style="edgeLabel;align=center;verticalAlign=middle;resizable=0;points=[];fontSize=7;" vertex="1" connectable="0" parent="kuxUDI9ris-chH6kOZA5-106">
          <mxGeometry x="-0.5361" y="1" relative="1" as="geometry">
            <mxPoint x="28.38" y="4.579999999999998" as="offset" />
          </mxGeometry>
        </mxCell>
        <mxCell id="kuxUDI9ris-chH6kOZA5-108" value="Vehicle Body:&#xa;Longitudinal,&#xa;Lateral,Yaw" style="rounded=1;align=center;verticalAlign=middle;fontSize=10;fontStyle=0;fillColor=#fff2cc;strokeColor=#d6b656;gradientColor=#ffd966;" vertex="1" parent="1">
          <mxGeometry x="303.68" y="618.29" width="83" height="60" as="geometry" />
        </mxCell>
        <mxCell id="kuxUDI9ris-chH6kOZA5-109" value="" style="edgeStyle=orthogonalEdgeStyle;rounded=0;orthogonalLoop=1;jettySize=auto;startArrow=none;startFill=0;endArrow=classicThin;endFill=1;fontSize=7;" edge="1" parent="1" source="kuxUDI9ris-chH6kOZA5-111" target="kuxUDI9ris-chH6kOZA5-102">
          <mxGeometry relative="1" as="geometry">
            <Array as="points">
              <mxPoint x="570" y="694" />
              <mxPoint x="570" y="657" />
            </Array>
          </mxGeometry>
        </mxCell>
        <mxCell id="kuxUDI9ris-chH6kOZA5-110" value="α" style="edgeLabel;align=center;verticalAlign=middle;resizable=0;points=[];fontSize=7;" vertex="1" connectable="0" parent="kuxUDI9ris-chH6kOZA5-109">
          <mxGeometry x="-0.6424" y="-1" relative="1" as="geometry">
            <mxPoint x="3.8499999999999996" y="-6.92" as="offset" />
          </mxGeometry>
        </mxCell>
        <mxCell id="kuxUDI9ris-chH6kOZA5-111" value="Slip Angle" style="rounded=1;align=center;verticalAlign=middle;fillColor=#b1ddf0;strokeColor=#10739e;fontSize=9;fontStyle=0;" vertex="1" parent="1">
          <mxGeometry x="468.72" y="720" width="64.21" height="31.42" as="geometry" />
        </mxCell>
        <mxCell id="kuxUDI9ris-chH6kOZA5-112" value="" style="edgeStyle=orthogonalEdgeStyle;rounded=0;orthogonalLoop=1;jettySize=auto;startArrow=none;startFill=0;endArrow=classicThin;endFill=1;fontSize=7;entryX=-0.016;entryY=0.204;entryDx=0;entryDy=0;entryPerimeter=0;" edge="1" parent="1" source="kuxUDI9ris-chH6kOZA5-114" target="kuxUDI9ris-chH6kOZA5-102">
          <mxGeometry relative="1" as="geometry" />
        </mxCell>
        <mxCell id="kuxUDI9ris-chH6kOZA5-113" value="κ" style="edgeLabel;align=center;verticalAlign=middle;resizable=0;points=[];fontSize=7;" vertex="1" connectable="0" parent="kuxUDI9ris-chH6kOZA5-112">
          <mxGeometry x="0.016" y="6" relative="1" as="geometry">
            <mxPoint x="-17.43" y="-0.3099999999999996" as="offset" />
          </mxGeometry>
        </mxCell>
        <mxCell id="kuxUDI9ris-chH6kOZA5-114" value="Slip Ratio" style="rounded=1;align=center;verticalAlign=middle;fillColor=#b1ddf0;strokeColor=#10739e;fontSize=9;fontStyle=0;" vertex="1" parent="1">
          <mxGeometry x="468.72" y="669.99995" width="64.21" height="31.42" as="geometry" />
        </mxCell>
        <mxCell id="kuxUDI9ris-chH6kOZA5-115" value="" style="edgeStyle=orthogonalEdgeStyle;rounded=0;orthogonalLoop=1;jettySize=auto;exitX=1;exitY=0.75;exitDx=0;exitDy=0;fontSize=7;endArrow=classicThin;endFill=1;fillColor=#d5e8d4;strokeColor=#82b366;" edge="1" parent="1" source="kuxUDI9ris-chH6kOZA5-95" target="kuxUDI9ris-chH6kOZA5-114">
          <mxGeometry relative="1" as="geometry">
            <mxPoint x="230" y="695.9525000000001" as="sourcePoint" />
            <mxPoint x="337.67999999999995" y="740" as="targetPoint" />
            <Array as="points">
              <mxPoint x="440" y="686" />
              <mxPoint x="440" y="647" />
            </Array>
          </mxGeometry>
        </mxCell>
        <mxCell id="kuxUDI9ris-chH6kOZA5-116" value="" style="edgeStyle=orthogonalEdgeStyle;rounded=0;orthogonalLoop=1;jettySize=auto;entryX=-0.003;entryY=0.576;entryDx=0;entryDy=0;startArrow=none;startFill=0;endArrow=classicThin;endFill=1;fontSize=7;entryPerimeter=0;" edge="1" parent="1" source="kuxUDI9ris-chH6kOZA5-118" target="kuxUDI9ris-chH6kOZA5-102">
          <mxGeometry relative="1" as="geometry">
            <Array as="points">
              <mxPoint x="580" y="764" />
              <mxPoint x="580" y="666" />
            </Array>
          </mxGeometry>
        </mxCell>
        <mxCell id="kuxUDI9ris-chH6kOZA5-117" value="Fz" style="edgeLabel;align=center;verticalAlign=middle;resizable=0;points=[];fontSize=7;" vertex="1" connectable="0" parent="kuxUDI9ris-chH6kOZA5-116">
          <mxGeometry x="-0.736" y="1" relative="1" as="geometry">
            <mxPoint x="-11" y="-6" as="offset" />
          </mxGeometry>
        </mxCell>
        <mxCell id="kuxUDI9ris-chH6kOZA5-118" value="Normal Force" style="rounded=1;align=center;verticalAlign=middle;fontSize=9;fontStyle=0;fillColor=#f5f5f5;strokeColor=#666666;fontColor=#333333;" vertex="1" parent="1">
          <mxGeometry x="451.65" y="586.8699999999999" width="98.35" height="31.42" as="geometry" />
        </mxCell>
        <mxCell id="kuxUDI9ris-chH6kOZA5-119" value="" style="edgeStyle=orthogonalEdgeStyle;rounded=0;orthogonalLoop=1;jettySize=auto;startArrow=none;startFill=0;endArrow=classicThin;endFill=1;fontSize=7;entryX=0;entryY=0.25;entryDx=0;entryDy=0;exitX=1;exitY=0.25;exitDx=0;exitDy=0;" edge="1" parent="1" source="kuxUDI9ris-chH6kOZA5-108" target="kuxUDI9ris-chH6kOZA5-108">
          <mxGeometry relative="1" as="geometry">
            <mxPoint x="478.72" y="664.15495" as="targetPoint" />
            <mxPoint x="396.68000000000006" y="725" as="sourcePoint" />
          </mxGeometry>
        </mxCell>
        <mxCell id="kuxUDI9ris-chH6kOZA5-120" value="" style="edgeStyle=orthogonalEdgeStyle;rounded=0;orthogonalLoop=1;jettySize=auto;startArrow=none;startFill=0;endArrow=classicThin;endFill=1;fontSize=7;entryX=0;entryY=0.75;entryDx=0;entryDy=0;exitX=1;exitY=0.25;exitDx=0;exitDy=0;" edge="1" parent="1" source="kuxUDI9ris-chH6kOZA5-39" target="kuxUDI9ris-chH6kOZA5-61">
          <mxGeometry relative="1" as="geometry">
            <Array as="points">
              <mxPoint x="410" y="381" />
              <mxPoint x="410" y="294" />
              <mxPoint x="452" y="294" />
            </Array>
            <mxPoint x="387" y="378" as="sourcePoint" />
            <mxPoint x="456.9700000000001" y="438.7249999999998" as="targetPoint" />
          </mxGeometry>
        </mxCell>
        <mxCell id="kuxUDI9ris-chH6kOZA5-121" value="ax,ay" style="edgeLabel;align=center;verticalAlign=middle;resizable=0;points=[];fontSize=7;" vertex="1" connectable="0" parent="kuxUDI9ris-chH6kOZA5-120">
          <mxGeometry x="-0.5361" y="1" relative="1" as="geometry">
            <mxPoint x="24" y="-77.87" as="offset" />
          </mxGeometry>
        </mxCell>
        <mxCell id="kuxUDI9ris-chH6kOZA5-129" value="" style="edgeStyle=orthogonalEdgeStyle;rounded=0;orthogonalLoop=1;jettySize=auto;startArrow=none;startFill=0;endArrow=classicThin;endFill=1;fontSize=7;entryX=0;entryY=0.75;entryDx=0;entryDy=0;exitX=1;exitY=0.75;exitDx=0;exitDy=0;fillColor=#fff2cc;strokeColor=#d6b656;" edge="1" parent="1" source="kuxUDI9ris-chH6kOZA5-39" target="kuxUDI9ris-chH6kOZA5-39">
          <mxGeometry relative="1" as="geometry">
            <mxPoint x="478.72" y="389.64495" as="targetPoint" />
            <mxPoint x="396.68000000000006" y="425.5" as="sourcePoint" />
            <Array as="points">
              <mxPoint x="440" y="416" />
              <mxPoint x="440" y="460" />
              <mxPoint x="270" y="460" />
              <mxPoint x="270" y="416" />
            </Array>
          </mxGeometry>
        </mxCell>
        <mxCell id="kuxUDI9ris-chH6kOZA5-131" value="" style="edgeStyle=orthogonalEdgeStyle;rounded=0;orthogonalLoop=1;jettySize=auto;startArrow=none;startFill=0;endArrow=classicThin;endFill=1;fontSize=7;entryX=0;entryY=0.75;entryDx=0;entryDy=0;exitX=1;exitY=0.75;exitDx=0;exitDy=0;fillColor=#fff2cc;strokeColor=#d6b656;" edge="1" parent="1" source="kuxUDI9ris-chH6kOZA5-39" target="kuxUDI9ris-chH6kOZA5-31">
          <mxGeometry relative="1" as="geometry">
            <mxPoint x="313.68000000000006" y="425.5" as="targetPoint" />
            <mxPoint x="396.68000000000006" y="425.5" as="sourcePoint" />
            <Array as="points">
              <mxPoint x="440" y="416" />
              <mxPoint x="440" y="460" />
              <mxPoint x="150" y="460" />
              <mxPoint x="150" y="356" />
            </Array>
          </mxGeometry>
        </mxCell>
        <mxCell id="kuxUDI9ris-chH6kOZA5-134" value="" style="edgeStyle=orthogonalEdgeStyle;rounded=0;orthogonalLoop=1;jettySize=auto;entryX=0;entryY=0.5;entryDx=0;entryDy=0;exitX=1;exitY=0.25;exitDx=0;exitDy=0;endArrow=classicThin;endFill=1;" edge="1" parent="1">
          <mxGeometry relative="1" as="geometry">
            <mxPoint x="131" y="308.2375000000001" as="sourcePoint" />
            <mxPoint x="175" y="308.22460000000007" as="targetPoint" />
          </mxGeometry>
        </mxCell>
        <mxCell id="kuxUDI9ris-chH6kOZA5-135" value="desired&#xa;trajectory" style="edgeLabel;align=center;verticalAlign=middle;resizable=0;points=[];fontSize=7;" vertex="1" connectable="0" parent="kuxUDI9ris-chH6kOZA5-134">
          <mxGeometry x="-0.2581" y="-1" relative="1" as="geometry">
            <mxPoint x="2.6700000000000017" y="-10.81" as="offset" />
          </mxGeometry>
        </mxCell>
        <mxCell id="kuxUDI9ris-chH6kOZA5-136" style="edgeStyle=orthogonalEdgeStyle;rounded=0;orthogonalLoop=1;jettySize=auto;html=0;startArrow=none;startFill=0;endArrow=classicThin;endFill=1;fontSize=7;exitX=1;exitY=0.5;exitDx=0;exitDy=0;entryX=-0.002;entryY=0.203;entryDx=0;entryDy=0;entryPerimeter=0;" edge="1" parent="1" source="kuxUDI9ris-chH6kOZA5-68" target="kuxUDI9ris-chH6kOZA5-35">
          <mxGeometry relative="1" as="geometry">
            <mxPoint x="241" y="245.71000000000004" as="sourcePoint" />
            <mxPoint x="619.8719999999998" y="316.2332799999999" as="targetPoint" />
            <Array as="points">
              <mxPoint x="600" y="246" />
              <mxPoint x="600" y="316" />
            </Array>
          </mxGeometry>
        </mxCell>
        <mxCell id="kuxUDI9ris-chH6kOZA5-137" value="μ" style="edgeLabel;html=1;align=center;verticalAlign=middle;resizable=0;points=[];fontSize=7;" vertex="1" connectable="0" parent="kuxUDI9ris-chH6kOZA5-136">
          <mxGeometry x="0.3327" y="1" relative="1" as="geometry">
            <mxPoint x="26.2" y="-6.720000000000001" as="offset" />
          </mxGeometry>
        </mxCell>
      </root>
    </mxGraphModel>
  </diagram>
</mxfile>
